#N canvas 137 61 1094 775 10;
#X obj 636 130 adc~ 1;
#X obj 828 490 unpack;
#X floatatom 828 540 0 0 0 0 - - -;
#X floatatom 842 517 0 0 0 0 - - -;
#X obj 828 450 route 1 2 3 4;
#X obj 911 490 unpack;
#X floatatom 911 540 0 0 0 0 - - -;
#X floatatom 925 517 0 0 0 0 - - -;
#X obj 995 490 unpack;
#X floatatom 995 540 0 0 0 0 - - -;
#X floatatom 1009 517 0 0 0 0 - - -;
#X obj 686 490 unpack;
#X floatatom 686 540 0 0 0 0 - - -;
#X floatatom 700 517 0 0 0 0 - - -;
#X floatatom 763 540 0 0 0 0 - - -;
#X obj 578 540 print attack;
#X obj 688 694 print pitch;
#X text 966 431 number of peaks to find (1-100 \, default 20);
#X text 966 453 number of peaks to output (default 0.);
#X obj 707 419 fiddle~ 1024 1 20 3;
#X text 835 564 individual sinusoidal components;
#X text 763 562 amplitude;
#X text 773 577 (dB);
#X text 686 562 raw pitch;
#X text 673 586 and amplitude;
#X text 584 560 bang on;
#X text 584 582 attack;
#X text 482 560 cooked pitch;
#X text 499 577 output;
#X text 842 419 ------ arguments:;
#X obj 687 623 mtof;
#X floatatom 561 325 5 0 0 0 - - -;
#X obj 789 703 s freq;
#X obj 487 458 osc~ 300;
#X obj 401 687 dac~;
#X obj 844 580 loadbang;
#X obj 827 604 metro 100;
#X obj 910 746 + 1000;
#X floatatom 1013 713 5 0 0 0 - - -;
#X obj 924 619 realtime;
#X obj 928 693 cos;
#X obj 930 714 * 1000;
#X obj 929 670 * 0.001;
#X obj 791 644 f;
#X floatatom 789 674 5 0 0 0 - - -;
#X connect 0 0 19 0;
#X connect 1 0 2 0;
#X connect 1 1 3 0;
#X connect 4 0 1 0;
#X connect 4 1 5 0;
#X connect 4 2 8 0;
#X connect 5 0 6 0;
#X connect 5 1 7 0;
#X connect 8 0 9 0;
#X connect 8 1 10 0;
#X connect 11 0 12 0;
#X connect 11 1 13 0;
#X connect 12 0 30 0;
#X connect 19 1 15 0;
#X connect 19 2 11 0;
#X connect 19 3 14 0;
#X connect 19 4 4 0;
#X connect 30 0 31 0;
#X connect 30 0 43 1;
#X connect 31 0 33 0;
#X connect 35 0 36 0;
#X connect 36 0 43 0;
#X connect 37 0 38 0;
#X connect 39 0 42 0;
#X connect 40 0 41 0;
#X connect 41 0 37 0;
#X connect 42 0 40 0;
#X connect 43 0 44 0;
#X connect 44 0 32 0;
