#N canvas 156 309 957 516 10;
#X floatatom 79 256 16 0 0 0 - - -;
#X floatatom 179 284 16 0 0 0 - - -;
#X obj 81 285 s bar;
#X obj 184 304 s foo;
#X obj 80 139 fiddle~;
#X obj 116 28 adc~ 1;
#X obj 196 125 bonk~;
#X obj 202 164 bng 15 250 50 0 empty empty empty 17 7 0 10 -262144
-1 -1;
#X obj 209 205 f;
#X obj 255 256 + 1;
#X obj 244 32 loadbang;
#X msg 221 67 minvel 9;
#X connect 0 0 2 0;
#X connect 1 0 3 0;
#X connect 4 0 0 0;
#X connect 5 0 4 0;
#X connect 5 0 6 0;
#X connect 6 0 7 0;
#X connect 7 0 8 0;
#X connect 8 0 1 0;
#X connect 8 0 9 0;
#X connect 9 0 8 1;
#X connect 10 0 11 0;
#X connect 11 0 6 0;
